<svg xmlns="http://www.w3.org/2000/svg" xmlns:xlink="http://www.w3.org/1999/xlink" version="1.1" id="Layer_1" x="0px" y="0px" width="100px" height="100px" viewBox="0 0 100 100" enable-background="new 0 0 100 100" xml:space="preserve">
<path d="M54.631,94.74V83.604c6.546-1.123,11.46-3.5,14.744-7.135c3.284-3.633,4.927-7.951,4.929-12.955  c0.064-4.984-1.312-9.131-4.135-12.439c-2.822-3.311-7.479-6.101-13.974-8.372c-4.828-1.672-8.311-3.228-10.445-4.663  c-2.137-1.438-3.184-3.021-3.141-4.747c-0.051-1.619,0.631-3.058,2.045-4.318c1.415-1.26,3.868-1.924,7.36-1.994  c4.264,0.078,7.71,0.559,10.339,1.441c2.627,0.882,4.594,1.693,5.896,2.437l3.188-12.392c-1.79-0.9-3.966-1.691-6.528-2.374  c-2.562-0.681-5.639-1.091-9.224-1.227V5.258H44.973v10.37c-6.041,1.155-10.647,3.457-13.823,6.905  c-3.175,3.448-4.774,7.661-4.798,12.642c0.084,5.292,1.855,9.513,5.313,12.661s8.097,5.679,13.918,7.597  c4.096,1.35,7.194,2.773,9.297,4.275c2.103,1.5,3.16,3.287,3.168,5.355c-0.08,2.174-1.187,3.855-3.315,5.049  c-2.132,1.191-4.819,1.797-8.06,1.814c-3.54-0.045-6.824-0.539-9.851-1.482c-3.027-0.941-5.667-2.072-7.92-3.389l-3.207,12.762  c1.924,1.166,4.497,2.188,7.719,3.057c3.222,0.871,6.696,1.4,10.424,1.596v10.271h10.793V94.74z"/>
</svg>