<?xml version="1.0" encoding="utf-8"?>
<!-- Generator: Adobe Illustrator 16.0.0, SVG Export Plug-In . SVG Version: 6.00 Build 0)  -->
<!DOCTYPE svg PUBLIC "-//W3C//DTD SVG 1.1//EN" "http://www.w3.org/Graphics/SVG/1.1/DTD/svg11.dtd">
<svg version="1.1" xmlns="http://www.w3.org/2000/svg" xmlns:xlink="http://www.w3.org/1999/xlink" x="0px" y="0px" width="100px"
	 height="100px" viewBox="0 0 100 100" enable-background="new 0 0 100 100" xml:space="preserve">
<g id="Captions">
	<rect x="-192" width="185" height="99"/>
	<rect y="-36" width="100" height="30"/>
	<text transform="matrix(1 0 0 1 66 -19.5)" fill="#FFFFFF" font-family="'Helvetica'" font-size="2.4">http://thenounproject.com</text>
	<text transform="matrix(1 0 0 1 7.166 -24.5)"><tspan x="0" y="0" fill="#FFFFFF" font-family="'Helvetica-Bold'" font-size="6.1578">The Noun Project</tspan><tspan x="1.12" y="4.8" fill="#FFFFFF" font-family="'Helvetica-Bold'" font-size="4">Icon Template</tspan></text>
	<text transform="matrix(1 0 0 1 -178.5 10.5)" fill="#FFFFFF" font-family="'Helvetica-Bold'" font-size="6.1578">Reminders</text>
	<line fill="none" stroke="#FFFFFF" stroke-miterlimit="10" x1="8" y1="-14.5" x2="18" y2="-14.5"/>
	<line fill="none" stroke="#FFFFFF" stroke-miterlimit="10" x1="-179" y1="16.5" x2="-162" y2="16.5"/>
	<g>
		<g>
			<g>
				<rect x="-170.802" y="31.318" fill="#FFFFFF" width="8.721" height="8.642"/>
				<path fill="#FFFFFF" d="M-164.455,42.312h4.747v-4.703h-4.747V42.312z M-159.266,42.749h-5.63V37.17h5.63V42.749
					L-159.266,42.749z M-166.221,44.062h8.279v-8.203h-8.279V44.062L-166.221,44.062z M-157.5,44.5h-9.163v-9.079h9.163V44.5
					L-157.5,44.5z"/>
				<polygon fill="#FFFFFF" points="-166.149,44.133 -166.292,43.991 -158.013,35.787 -157.871,35.929 				"/>
			</g>
		</g>
	</g>
	<rect x="-179" y="58" fill="none" width="35" height="32.5"/>
	<text transform="matrix(1 0 0 1 -179 60.1572)"><tspan x="0" y="0" fill="#FFFFFF" font-family="'Helvetica-Bold'" font-size="3">Strokes</tspan><tspan x="0" y="5" fill="#FFFFFF" font-family="'Helvetica'" font-size="2.4">Try to keep strokes at 4px</tspan><tspan x="0" y="10" fill="#FFFFFF" font-family="'Helvetica'" font-size="2.4">Minimum stroke weight is 2px</tspan><tspan x="0" y="14.5" fill="#FFFFFF" font-family="'Helvetica'" font-size="2.4">For thicker strokes use even </tspan><tspan x="0" y="17.5" fill="#FFFFFF" font-family="'Helvetica'" font-size="2.4">numbers: 6px, 8px etc.</tspan><tspan x="0" y="22" fill="#FFFFFF" font-family="'Helvetica-Bold'" font-size="2.4">Remember to expand strokes </tspan><tspan x="0" y="25" fill="#FFFFFF" font-family="'Helvetica-Bold'" font-size="2.4">before saving as an SVG </tspan></text>
	<rect x="-136.5" y="58" fill="none" width="35" height="32.5"/>
	<text transform="matrix(1 0 0 1 -136.5 60.1572)"><tspan x="0" y="0" fill="#FFFFFF" font-family="'Helvetica-Bold'" font-size="3">Size</tspan><tspan x="0" y="5" fill="#FFFFFF" font-family="'Helvetica'" font-size="2.4">Cannot be wider or taller than </tspan><tspan x="0" y="8.5" fill="#FFFFFF" font-family="'Helvetica'" font-size="2.4">100px (artboard size)</tspan><tspan x="0" y="13.5" fill="#FFFFFF" font-family="'Helvetica'" font-size="2.4">Scale your icon to fill as much of </tspan><tspan x="0" y="16.5" fill="#FFFFFF" font-family="'Helvetica'" font-size="2.4">the artboard as possible</tspan></text>
	<rect x="-94" y="58" fill="none" width="35" height="32.5"/>
	<text transform="matrix(1 0 0 1 -94 60.1572)"><tspan x="0" y="0" fill="#FFFFFF" font-family="'Helvetica-Bold'" font-size="3">Ungroup</tspan><tspan x="0" y="5" fill="#FFFFFF" font-family="'Helvetica'" font-size="2.4">If your design has more than one </tspan><tspan x="0" y="8" fill="#FFFFFF" font-family="'Helvetica'" font-size="2.4">shape, make sure to ungroup</tspan></text>
	<rect x="-50" y="58" fill="none" width="35" height="32.5"/>
	<text transform="matrix(1 0 0 1 -50 60.1572)"><tspan x="0" y="0" fill="#FFFFFF" font-family="'Helvetica-Bold'" font-size="3">Save as</tspan><tspan x="0" y="5" fill="#FFFFFF" font-family="'Helvetica'" font-size="2.4">Save as .SVG and make sure </tspan><tspan x="0" y="8" fill="#FFFFFF" font-family="'Helvetica'" font-size="2.4">“Use Artboards” is checked</tspan></text>
	<text transform="matrix(1.0074 0 0 1 -125.542 30.5933)" fill="#FFFFFF" font-family="'Helvetica'" font-size="2.5731">100px</text>
	<text transform="matrix(1.0074 0 0 1 -41 39)" fill="#FFFFFF" font-family="'Helvetica-Bold'" font-size="5.1462">.SVG</text>
	<rect x="-126.514" y="34.815" fill="#FFFFFF" width="10.261" height="10.185"/>
	<rect x="-126.477" y="31.766" fill="#FFFFFF" width="0.522" height="2.337"/>
	<rect x="-116.812" y="31.766" fill="#FFFFFF" width="0.523" height="2.337"/>
	<rect x="-127" y="32.337" fill="#FFFFFF" width="11.233" height="0.572"/>
	<g>
		<rect x="-83.805" y="33.844" fill="#FFFFFF" width="10.305" height="10.156"/>
		<rect x="-76.809" y="28.707" fill="#FFFFFF" width="3.308" height="3.261"/>
	</g>
	<rect x="-178.5" y="22.5" fill="none" stroke="#FFFFFF" stroke-miterlimit="10" width="30" height="30"/>
	<rect x="-136.5" y="22.5" fill="none" stroke="#FFFFFF" stroke-miterlimit="10" width="30" height="30"/>
	<rect x="-93.5" y="22.5" fill="none" stroke="#FFFFFF" stroke-miterlimit="10" width="30" height="30"/>
	<rect x="-49.5" y="22.5" fill="none" stroke="#FFFFFF" stroke-miterlimit="10" width="30" height="30"/>
</g>
<g id="Your_Icon">
	<path d="M87,8H13c-2.206,0-4,1.794-4,4v70c0,2.206,1.794,4,4,4h74c2.206,0,4-1.794,4-4V12C91,9.794,89.206,8,87,8z M34.071,12
		c1.656,0,3,1.343,3,3s-1.344,3-3,3s-3-1.343-3-3S32.415,12,34.071,12z M25.071,12c1.656,0,3,1.343,3,3s-1.344,3-3,3s-3-1.343-3-3
		S23.415,12,25.071,12z M16.071,12c1.656,0,3,1.343,3,3s-1.344,3-3,3s-3-1.343-3-3S14.415,12,16.071,12z M86.994,80H13V22h73.999
		L86.994,80z"/>
	<rect x="18" y="29" width="30" height="4"/>
	<rect x="18" y="47" width="30" height="4"/>
	<rect x="18" y="38" width="39" height="4"/>
</g>
<g id="Your_Icon_Clean" display="none">
	<rect id="top_1_" x="11" y="10" display="inline" width="79" height="12"/>
	<rect id="bottom_1_" x="11" y="80" display="inline" width="79" height="3"/>
	<g id="frame_1_" display="inline">
		<path fill="none" stroke="#000000" stroke-width="4" stroke-miterlimit="10" d="M89,82c0,1.1-0.9,2-2,2H13c-1.1,0-2-0.9-2-2V12
			c0-1.1,0.9-2,2-2h74c1.1,0,2,0.9,2,2V82z"/>
	</g>
	<circle id="button_5_" display="inline" fill="#FFFFFF" cx="16.071" cy="15" r="3"/>
	<circle id="button_4_" display="inline" fill="#FFFFFF" cx="25.071" cy="15" r="3"/>
	<circle id="button_3_" display="inline" fill="#FFFFFF" cx="34.071" cy="15" r="3"/>
	<rect x="18" y="29" display="inline" width="30" height="4"/>
	<rect x="18" y="47" display="inline" width="30" height="4"/>
	<rect x="18" y="38" display="inline" width="39" height="4"/>
</g>
</svg>
